<?xml version="1.0"?>
<svg xmlns="http://www.w3.org/2000/svg" xmlns:xlink="http://www.w3.org/1999/xlink" version="1.1" id="Capa_1" x="0px" y="0px" viewBox="0 0 440.424 440.424" style="enable-background:new 0 0 440.424 440.424;" xml:space="preserve" width="512px" height="512px"><g><g>
	<g>
		<g>
			<path d="M248.947,211.069L217.6,179.722l14.629-20.898c-4.116-7.592-7.274-15.664-9.404-24.033l-23.51-4.18v-10.449H19.592     l131.657,133.224c1.567,1.567,1.045,1.567,1.045,3.657v183.38l67.918-31.869v-151.51c-0.317-2.051,0.253-4.14,1.567-5.747     l51.722-52.767l-3.657-1.567L248.947,211.069z" data-original="#000000" class="active-path" data-old_color="#000000" fill="#608D98"/>
			<circle cx="320.522" cy="107.624" r="32.914" data-original="#000000" class="active-path" data-old_color="#000000" fill="#608D98"/>
			<path d="M406.727,95.086l-1.567-5.224c-2.315-10.364-6.379-20.258-12.016-29.257l-2.612-4.18l12.539-18.286l-12.539-13.061     l-18.286,13.061l-4.702-3.135c-8.911-5.808-18.836-9.885-29.257-12.016l-5.224-1.045L329.404,0h-17.763l-3.657,21.943     l-5.224,2.09c-10.365,2.04-20.276,5.933-29.257,11.494l-4.702,2.612L251.037,25.6l-13.061,12.539l12.539,18.286l-2.612,4.702     c-5.427,8.86-9.314,18.576-11.494,28.735v5.224l-20.898,3.657v18.286l20.898,3.657v5.224     c2.315,10.364,6.379,20.258,12.016,29.257l2.612,4.702l-13.061,17.763l13.061,13.061l17.763-12.539l4.702,3.135     c9.022,5.593,18.908,9.654,29.257,12.016l5.224,2.09l3.657,24.033h17.763l3.657-24.033l5.224-2.09     c10.494-2.176,20.444-6.44,29.257-12.539l4.702-2.612l18.286,12.539l12.539-13.061l-13.061-18.286l3.135-4.702     c5.804-8.723,9.883-18.477,12.016-28.735l1.567-5.224l22.465-3.657V98.743L406.727,95.086z M320.522,156.212     c-26.834,0-48.588-21.753-48.588-48.588c0-26.834,21.754-48.588,48.588-48.588c26.834,0,48.588,21.753,48.588,48.588     S347.357,156.212,320.522,156.212z" data-original="#000000" class="active-path" data-old_color="#000000" fill="#608D98"/>
			<polygon points="199.314,85.682 222.824,82.547 225.437,73.143 11.233,73.143 11.233,104.49 199.314,104.49    " data-original="#000000" class="active-path" data-old_color="#000000" fill="#608D98"/>
		</g>
	</g>
</g></g> </svg>
