<?xml version="1.0"?>
<svg xmlns="http://www.w3.org/2000/svg" xmlns:xlink="http://www.w3.org/1999/xlink" xmlns:svgjs="http://svgjs.com/svgjs" version="1.1" width="512" height="512" x="0" y="0" viewBox="0 0 96 96" style="enable-background:new 0 0 512 512" xml:space="preserve" class=""><g><g xmlns="http://www.w3.org/2000/svg" id="_01-cart" data-name="01-cart"><path d="M95.209,25.7A4,4,0,0,0,92,24.087H32v8H86.624L83.05,44H40v8H80.65L77.024,64.087H31.017l-15.171-53.1a4,4,0,0,0-3.817-2.9L.029,8l-.058,8,9.006.065L24.154,69.186A4,4,0,0,0,28,72.087H38.613a12,12,0,1,0,2.774,0H66.613a12,12,0,1,0,2.774,0H80a4,4,0,0,0,3.832-2.851l12-40A4,4,0,0,0,95.209,25.7ZM44,84a4,4,0,1,1-4-4A4,4,0,0,1,44,84Zm28,0a4,4,0,1,1-4-4A4,4,0,0,1,72,84Z" fill="#404c54" data-original="#000000" style="" class=""/></g></g></svg>
