<?xml version="1.0" encoding="utf-8"?>
<!-- Generator: Adobe Illustrator 19.2.1, SVG Export Plug-In . SVG Version: 6.00 Build 0)  -->
<svg version="1.1" id="Слой_1" xmlns="http://www.w3.org/2000/svg" xmlns:xlink="http://www.w3.org/1999/xlink" x="0px" y="0px"
	 viewBox="0 0 480 480" style="enable-background:new 0 0 480 480;" xml:space="preserve">
<style type="text/css">
	.st0{fill:none;stroke:none;stroke-miterlimit:10;}
</style>
<path class="st0" d="M94.8,274.3c-4.1-14-6.2-28.9-6-44.3c0.2-15.3,2.6-30.2,7-44.2l-36-11.5c-1.1,2.8-2.2,5.6-3.5,8.3
	c-1,2.2-3.5,4.5-5.7,5.2c-11.3,3.3-22.8,6.2-34.3,9.1c-3.8,1-5.4,2.9-5.4,6.9c0.1,15.9,0.1,31.9-0.1,47.8c0,3.8,1.3,5.6,5.1,6.5
	c11,2.8,21.8,6.1,32.8,8.9c3.7,0.9,5.7,2.9,6.9,6.2c1.4,3.8,2.7,7.7,4.1,11.5c0.5,1.4,1.1,2.8,1.6,4.2l34.5-11.6
	C95.4,276.3,95.1,275.3,94.8,274.3z"/>
<path class="st0" d="M98.4,177.8c10-26.8,27.2-50.2,49.2-67.5l-21.9-29c-1.7,1.3-3.5,2.6-5.2,3.9c-2.8,2.2-5.4,2.6-8.7,1.3
	c-11.5-4.2-23.2-8.2-34.7-12.5c-3.6-1.3-5.7-0.5-8,2.6c-9.3,12.6-18.8,25.1-28.5,37.4c-2.3,2.9-2.5,4.8-0.1,7.6
	c8.1,9.6,15.9,19.4,24,29c2.3,2.7,2.6,5,1.3,8.1c-1.2,3-2.4,6.1-3.5,9.1c-0.8,2.1-1.6,4.3-2.5,6.4l36,11.5
	C96.6,183.1,97.5,180.4,98.4,177.8z"/>
<path class="st0" d="M327.8,107l20.6-28.7c-2.6-1.9-5.3-3.8-8-5.7c-3.2-2.2-4.7-4.8-4.4-8.7c0.8-11.4,1.2-22.9,2-34.4
	c0.3-4.5-0.9-7.2-5.7-8.7c-13.5-4.2-26.9-8.8-40.2-13.5c-3.9-1.4-6.4-0.8-8.8,2.7c-6.7,9.8-13.7,19.4-20.8,28.9
	c-1.5,2-4.4,4.1-6.6,4.1c-5.3,0.1-10.5-0.1-15.8-0.3v35.9C272.7,78.3,303,88.9,327.8,107z"/>
<path class="st0" d="M328.6,107.5c24.5,18.1,43.5,43.6,53.9,73.3c0.4,1,0.7,2.1,1.1,3.1l34.3-11.8c0-0.1-0.1-0.3-0.1-0.4
	c-1.2-3.6-2.4-7.3-3.6-10.9c-1.1-3.3-0.6-5.9,1.6-8.6c7.4-9.3,14.5-18.8,22-28c3.1-3.8,3.4-6.7,0.2-10.8
	c-8.5-10.9-16.7-22.1-24.7-33.4c-2.3-3.3-4.7-3.9-8.4-2.6c-11.8,4.1-23.6,8-35.6,11.6c-2.1,0.6-5.3,0-7.2-1.3
	c-3.4-2.2-6.6-4.5-9.9-6.9c-1.2-0.9-2.4-1.8-3.6-2.6L327.8,107C328.1,107.2,328.3,107.3,328.6,107.5z"/>
<path class="st0" d="M154.3,105.3c24.2-17,53.5-26.9,85.1-26.6c0.2,0,0.4,0,0.6,0V42.8c-4.2-0.2-8.4-0.4-12.6-0.5
	c-3.8-0.1-6.4-1.8-8.6-5c-6.5-9.7-13.3-19.3-20.2-28.8c-1-1.4-3.6-3-5-2.6c-15.6,4.6-31.2,9.4-46.7,14.5c-1.7,0.6-3.8,3.5-3.8,5.3
	c0.2,12.3,0.7,24.6,1.5,36.8c0.2,3.3-0.3,5.6-3.1,7.6c-3.5,2.4-7,4.9-10.5,7.4c-1.8,1.3-3.6,2.6-5.3,3.9l21.9,29
	C149.8,108.6,152,106.9,154.3,105.3z"/>
<path class="st0" d="M468.2,208.8c0.1-4-1.4-5.9-5.3-7c-11.8-3.4-23.6-6.9-35.4-10.6c-1.8-0.6-4-2.2-4.6-3.8
	c-1.9-5.1-3.6-10.2-5.2-15.3l-34.3,11.8c4.9,15.1,7.5,31.1,7.5,47.8c0,15.6-2.4,30.7-6.7,45l32.9,11.2c0.1-0.2,0.2-0.5,0.3-0.7
	c1.5-4.3,2.9-8.7,4.3-13c1-3.3,2.7-4.9,6-5.7c11.6-3.1,23-6.6,34.6-9.6c4.1-1.1,6-3,6-7.5C468,237.1,468,223,468.2,208.8z"/>
<path class="st0" d="M384.3,276.7c-9.6,31.4-29,58.5-54.5,77.7c-0.2,0.1-0.3,0.2-0.5,0.4l18.8,26.4c0.8-0.5,1.5-1,2.3-1.5
	c3.7-2.4,7.4-4.8,11.1-7c1.4-0.9,3.8-1.2,5.4-0.6c11.2,3.8,22.3,7.7,33.4,11.9c4.2,1.6,7,1.3,9.7-2.6c8.8-12.6,17.8-25,26.9-37.3
	c1.7-2.3,1.6-3.8-0.2-6c-7.8-9.6-15.4-19.4-22.8-29.3c-1.3-1.7-1.8-4.9-1.2-7c1.4-4.7,2.9-9.3,4.5-13.9L384.3,276.7
	C384.3,276.7,384.3,276.7,384.3,276.7z"/>
<path class="st0" d="M95.7,277.3l-34.5,11.6c1.1,2.8,2.1,5.6,3.3,8.3c1.3,3.2,0.9,5.5-1.3,8c-7.5,8.8-14.7,17.8-22.3,26.5
	c-3.3,3.8-4.4,6.9-0.9,11.6c8.9,11.7,17.2,23.8,25.6,35.8c2.1,3.1,4.2,4,7.9,2.7c10.7-3.7,21.5-7,32.2-10.7c3.6-1.3,6.6-1.1,9.8,1.1
	c3.2,2.2,6.4,4.3,9.7,6.5c0.3,0.2,0.7,0.4,1,0.6l20.3-27.7C123,332.8,105,307,95.7,277.3z"/>
<path class="st0" d="M147.5,352.4c-0.3-0.3-0.7-0.5-1-0.8l-20.3,27.7c4.1,2.7,8.1,5.3,12.1,8.1c1.5,1.1,2.7,3.7,2.7,5.5
	c-0.4,11.6-1.2,23.2-2.1,34.8c-0.4,4.9,1.4,7.4,6.3,8.8c13.8,3.8,27.5,7.9,41.1,12.3c5,1.6,7.7,0.8,10.7-3.6
	c6.3-9.5,13-18.7,20-27.7c1.4-1.9,4.6-3.4,7-3.4c4.1-0.1,8.3,0.1,12.4,0.3v-29.9C203.2,383.9,172.4,372,147.5,352.4z"/>
<path class="st0" d="M240,384.7c-0.4,0-0.9,0-1.3,0c-0.8,0-1.6,0-2.4,0v29.9c1.2,0.1,2.4,0.1,3.7,0.2c2.8,0.1,5.6,0.2,8.4,0.1
	c5.4-0.2,8.6,1.9,11.4,6.1c6.2,9.5,12.9,18.7,19.3,28.2c1.9,2.8,3.9,3.5,7.2,2.4c14.3-4.6,28.5-9.1,42.9-13.4c3.6-1.1,5.2-3,5-6.8
	c-0.5-7.9-0.9-15.7-1.2-22.2c0-5.3,0.5-9.4-0.1-13.2c-0.6-3.6,0.8-5.4,3.6-7.2c4-2.5,7.9-5,11.8-7.6l-18.8-26.4
	C304.2,373.5,273.4,384.6,240,384.7z"/>
</svg>
