<svg xmlns="http://www.w3.org/2000/svg" viewBox="0 0 512 512"><title>ico</title><path d="M262.48,311.11a7.72,7.72,0,0,0-10.28-3.66,122.91,122.91,0,0,1-19.52,7.3,7.71,7.71,0,0,0-5.49,5.92L219,361.49a8.68,8.68,0,0,1-8.49,7H188.26a8.68,8.68,0,0,1-8.49-7l-8.17-40.83a7.72,7.72,0,0,0-5.49-5.92A122.64,122.64,0,0,1,139,303.51a7.72,7.72,0,0,0-8.07.3L96.3,326.91a8.68,8.68,0,0,1-10.92-1.08L69.62,310.08a8.68,8.68,0,0,1-1.08-10.92l23.1-34.65a7.72,7.72,0,0,0,.3-8.07,122.61,122.61,0,0,1-11.23-27.11,7.71,7.71,0,0,0-5.92-5.49L34,215.68a8.68,8.68,0,0,1-7-8.49V184.92a8.68,8.68,0,0,1,7-8.49l40.83-8.17a7.72,7.72,0,0,0,5.92-5.49,122.64,122.64,0,0,1,11.23-27.11,7.72,7.72,0,0,0-.3-8.07L68.55,93A8.68,8.68,0,0,1,69.63,82L85.38,66.29A8.68,8.68,0,0,1,96.3,65.21l34.65,23.1a7.72,7.72,0,0,0,8.07.3,122.64,122.64,0,0,1,27.11-11.23,7.71,7.71,0,0,0,5.49-5.92l8.17-40.83a8.68,8.68,0,0,1,8.49-7h22.27a8.68,8.68,0,0,1,8.49,7l8.17,40.83a7.72,7.72,0,0,0,5.49,5.92,122.64,122.64,0,0,1,27.11,11.23,7.72,7.72,0,0,0,8.07-.3l34.65-23.1a8.68,8.68,0,0,1,10.92,1.08L329.17,82A8.68,8.68,0,0,1,330.25,93l-23.1,34.65a7.72,7.72,0,0,0-.3,8.07,122.64,122.64,0,0,1,11.23,27.11,7.71,7.71,0,0,0,5.92,5.49l40.83,8.17a8.68,8.68,0,0,1,7,8.49V207.2a8.68,8.68,0,0,1-7,8.49L324,223.85a7.72,7.72,0,0,0-5.92,5.49,122.86,122.86,0,0,1-7.52,20A7.72,7.72,0,0,0,324.48,256a138.44,138.44,0,0,0,7.11-17.93l36.27-7.25a24.16,24.16,0,0,0,19.36-23.63V184.92a24.16,24.16,0,0,0-19.37-23.62L331.58,154a138.12,138.12,0,0,0-9-21.74l20.52-30.78a24.16,24.16,0,0,0-3-30.4L324.33,55.37a24.16,24.16,0,0,0-30.4-3L263.15,72.88a138.21,138.21,0,0,0-21.74-9L234.16,27.6A24.15,24.15,0,0,0,210.53,8.24H188.26a24.16,24.16,0,0,0-23.62,19.37l-7.25,36.27a138.12,138.12,0,0,0-21.74,9L104.86,52.37a24.16,24.16,0,0,0-30.4,3L58.71,71.13a24.16,24.16,0,0,0-3,30.4l20.52,30.78a138.17,138.17,0,0,0-9,21.74L30.94,161.3a24.16,24.16,0,0,0-19.37,23.62V207.2a24.16,24.16,0,0,0,19.37,23.62l36.27,7.25a138.1,138.1,0,0,0,9,21.74L55.7,290.6a24.16,24.16,0,0,0,3,30.4l15.75,15.75a24.16,24.16,0,0,0,30.4,3l30.78-20.52a138.17,138.17,0,0,0,21.74,9l7.25,36.27a24.16,24.16,0,0,0,23.62,19.36h22.27a24.16,24.16,0,0,0,23.62-19.37l7.25-36.27a138.28,138.28,0,0,0,17.4-6.86A7.72,7.72,0,0,0,262.48,311.11Z"/><path d="M266.25,239a7.71,7.71,0,0,0,10.39-3.35A86.77,86.77,0,0,0,138.83,133.93,7.72,7.72,0,0,0,149.61,145a71.34,71.34,0,0,1,113.3,83.58A7.72,7.72,0,0,0,266.25,239Z"/><path d="M127.14,163a7.72,7.72,0,0,0-9.81,4.79,86.78,86.78,0,0,0,132.9,98.56,7.72,7.72,0,0,0-9.05-12.5,71.36,71.36,0,0,1-109.25-81A7.72,7.72,0,0,0,127.14,163Z"/><path d="M485.57,345.58l-22.32-4.46a93.37,93.37,0,0,0-4.9-11.81L471,310.37A18.53,18.53,0,0,0,468.68,287L458.33,276.7A18.53,18.53,0,0,0,435,274.39L416.07,287a93.22,93.22,0,0,0-11.81-4.89l-4.46-22.32a18.53,18.53,0,0,0-18.12-14.85H367a18.53,18.53,0,0,0-18.12,14.85l-4.46,22.32A93.51,93.51,0,0,0,332.64,287L313.7,274.39a18.53,18.53,0,0,0-23.32,2.31L280,287a18.53,18.53,0,0,0-2.31,23.32l12.63,18.94a93.29,93.29,0,0,0-6.31,16.4,7.72,7.72,0,0,0,14.87,4.16A77.89,77.89,0,0,1,306,332.64a7.72,7.72,0,0,0-.3-8.07L290.57,301.8a3,3,0,0,1,.38-3.84l10.35-10.35a3.05,3.05,0,0,1,3.84-.38l22.77,15.18a7.72,7.72,0,0,0,8.07.3,77.91,77.91,0,0,1,17.23-7.14,7.71,7.71,0,0,0,5.49-5.92l5.36-26.83a3,3,0,0,1,3-2.44h14.64a3.05,3.05,0,0,1,3,2.44L390,289.66a7.72,7.72,0,0,0,5.49,5.92,77.89,77.89,0,0,1,17.23,7.14,7.72,7.72,0,0,0,8.07-.3l22.77-15.18a3,3,0,0,1,3.84.38L457.76,298a3.05,3.05,0,0,1,.38,3.84L443,324.57a7.72,7.72,0,0,0-.3,8.07,77.91,77.91,0,0,1,7.14,17.23,7.71,7.71,0,0,0,5.92,5.49l26.83,5.36a3,3,0,0,1,2.44,3v14.64a3.05,3.05,0,0,1-2.44,3l-26.83,5.36a7.72,7.72,0,0,0-5.92,5.49,77.89,77.89,0,0,1-7.14,17.23,7.72,7.72,0,0,0,.3,8.07l15.18,22.77a3,3,0,0,1-.38,3.84l-10.35,10.35a3.05,3.05,0,0,1-3.84.38L420.8,439.63a7.72,7.72,0,0,0-8.07-.3,77.91,77.91,0,0,1-17.23,7.14,7.71,7.71,0,0,0-5.49,5.92l-5.36,26.83a3,3,0,0,1-3,2.44H367a3.05,3.05,0,0,1-3-2.44l-5.36-26.83a7.72,7.72,0,0,0-5.49-5.92A77.89,77.89,0,0,1,336,439.33a7.72,7.72,0,0,0-8.07.3l-22.77,15.18a3,3,0,0,1-3.84-.38l-10.35-10.35a3.05,3.05,0,0,1-.38-3.84l15.18-22.77a7.72,7.72,0,0,0,.3-8.07,77.91,77.91,0,0,1-7.14-17.23,7.71,7.71,0,0,0-5.92-5.49l-26.83-5.36a3,3,0,0,1-2.44-3V363.7a3.05,3.05,0,0,1,2.44-3l1.64-.33a7.72,7.72,0,1,0-3-15.14l-1.64.33a18.53,18.53,0,0,0-14.85,18.12v14.64a18.53,18.53,0,0,0,14.85,18.12l22.32,4.46a93.51,93.51,0,0,0,4.89,11.81l-12.63,18.94A18.53,18.53,0,0,0,280,455l10.35,10.35a18.53,18.53,0,0,0,23.32,2.31L332.64,455a93.22,93.22,0,0,0,11.81,4.89l4.46,22.32A18.53,18.53,0,0,0,367,497.09h14.64a18.53,18.53,0,0,0,18.12-14.85l4.46-22.32a93.37,93.37,0,0,0,11.81-4.9L435,467.65a18.53,18.53,0,0,0,23.32-2.31L468.68,455A18.53,18.53,0,0,0,471,431.68l-12.63-18.94a93.22,93.22,0,0,0,4.89-11.81l22.32-4.46a18.53,18.53,0,0,0,14.85-18.12V363.7A18.53,18.53,0,0,0,485.57,345.58Z"/><path d="M374.35,343.23A27.82,27.82,0,0,1,402.14,371a7.72,7.72,0,0,0,15.44,0,43.23,43.23,0,1,0-43.23,43.23,42.82,42.82,0,0,0,26.41-9A7.72,7.72,0,0,0,391.32,393a27.52,27.52,0,0,1-17,5.78A27.79,27.79,0,1,1,374.35,343.23Z"/><path d="M246.42,196.06a47,47,0,1,0-47,47A47.08,47.08,0,0,0,246.42,196.06Zm-78.62,0a31.59,31.59,0,1,1,31.59,31.59A31.63,31.63,0,0,1,167.81,196.06Z"/></svg>