<svg xmlns="http://www.w3.org/2000/svg" viewBox="0 0 512 512"><defs><style>.a{fill:none;stroke:#000;stroke-linecap:round;stroke-miterlimit:10;stroke-width:15px;}</style></defs><title>ico</title><path class="a" d="M46.08,467a99.55,99.55,0,1,1,70.4,29.16"/><rect class="a" x="43.41" y="109.26" width="259.83" height="31.46" transform="translate(-37.61 159.17) rotate(-45)"/><rect class="a" x="49.47" y="81.65" width="197.76" height="36.71" transform="translate(-27.26 134.19) rotate(-45)"/><rect class="a" x="230.67" y="88.78" width="146.13" height="333.23" transform="translate(-91.63 289.58) rotate(-45)"/><path class="a" d="M417.69,451.49l-41.9-21.16a6.19,6.19,0,0,1-1.4-10L468.72,326a6.19,6.19,0,0,1,10,1.39l21.17,41.88a15.19,15.19,0,0,1-3,17.53L435.21,448.5A15.19,15.19,0,0,1,417.69,451.49Z"/><circle class="a" cx="376.24" cy="327.9" r="27" transform="translate(-121.66 362.08) rotate(-45)"/></svg>