<svg xmlns="http://www.w3.org/2000/svg" viewBox="0 0 512 512"><defs><style>.a{fill:none;stroke:#000;stroke-linecap:round;stroke-miterlimit:10;stroke-width:15px;}</style></defs><title>ico</title><path class="a" d="M249.06,13.35L267.4,31.69,79.3,219.79,61,201.45l5.16-21.28a219.46,219.46,0,0,1,161-161.45Z"/><path class="a" d="M421.43,449.35L136.81,164.73,212.34,89.2,497,373.82a18.18,18.18,0,0,1,0,25.71l-49.82,49.82A18.18,18.18,0,0,1,421.43,449.35Z"/><rect class="a" x="252.19" y="275.44" width="182.57" height="41.93" rx="19.83" ry="19.83" transform="translate(757.26 110.38) rotate(115)"/><rect class="a" x="308.97" y="332.23" width="182.57" height="41.93" rx="19.83" ry="19.83" transform="translate(889.51 139.7) rotate(115)"/><rect class="a" x="196.62" y="219.87" width="182.57" height="41.93" rx="19.83" ry="19.83" transform="translate(627.85 81.69) rotate(115)"/><rect class="a" x="141.05" y="164.3" width="182.57" height="41.93" rx="19.83" ry="19.83" transform="translate(498.44 53) rotate(115)"/><path class="a" d="M41.19,472.21a99.55,99.55,0,1,1,70.4,29.16"/><polygon class="a" points="80.59 455.49 49.6 401.81 80.59 348.14 142.57 348.14 173.56 401.81 142.57 455.49 80.59 455.49"/></svg>