<svg xmlns="http://www.w3.org/2000/svg" viewBox="0 0 512 512"><defs><style>.a{fill:none;stroke:#000;stroke-linecap:round;stroke-miterlimit:10;stroke-width:15px;}</style></defs><title>ico</title><path class="a" d="M383.58,470.33L228.66,315.41h0a128.17,128.17,0,0,0,80.5-80l0.24-.71L464.25,389.5a18.82,18.82,0,0,1,0,26.6l-54,54.21A18.82,18.82,0,0,1,383.58,470.33Z"/><rect class="a" x="288.65" y="370.42" width="195.19" height="44.83" rx="17.4" ry="17.4" transform="translate(905.51 208.79) rotate(115)"/><rect class="a" x="229.25" y="311.01" width="195.19" height="44.83" rx="17.4" ry="17.4" transform="translate(767.15 178.12) rotate(115)"/><circle class="a" cx="173.44" cy="179.7" r="145.52" transform="translate(-76.27 175.27) rotate(-45)"/><path class="a" d="M171.11,257.87A81.68,81.68,0,1,1,231.2,234"/></svg>