<svg xmlns="http://www.w3.org/2000/svg" viewBox="0 0 512 512"><title>ico</title><path d="M505.06,394.61l-52.93-52.93,9.29-19.26a24,24,0,1,0-43.24-20.86l-2,4.15-16.86-16.86,9.29-19.26a24,24,0,1,0-43.24-20.86l-2,4.15L346.49,236l9.29-19.26a24,24,0,0,0-38.6-27.41h0a23.94,23.94,0,0,0-4.64,6.55l-2,4.15-16.86-16.86L303,164a24,24,0,0,0-38.6-27.41c-3.07,3.07-4.79,6.86-6.65,10.7L235.34,124.9,275,85.29a24,24,0,0,0,0-34L231.19,7.58a24.23,24.23,0,0,0-34,0L148.84,56A8,8,0,1,0,160.16,67.3L173.48,54l55.07,55.08-86.76,86.76L86.71,140.74,132.3,95.15A8,8,0,0,0,121,83.84L40.32,164.5a24.23,24.23,0,0,0,0,34l43.76,43.76a24.26,24.26,0,0,0,34,0l39.61-39.61,49.5,49.5-9.29,19.26a24,24,0,1,0,43.25,20.86l2-4.15L260,304.93l-9.29,19.26a24,24,0,0,0,29.53,33.1A23.84,23.84,0,0,0,293.91,345l2-4.15,16.86,16.86L303.49,377a24,24,0,1,0,43.24,20.86l2-4.15,16.86,16.86-9.29,19.26a24,24,0,1,0,43.24,20.86l2-4.16,25.79,25.79a24.23,24.23,0,0,0,34,0l43.76-43.76A24.23,24.23,0,0,0,505.06,394.61Zm-320.27-352,23.77-23.77a8.08,8.08,0,0,1,11.32,0l43.76,43.76a8,8,0,0,1,0,11.32L239.87,97.73ZM106.71,230.9a8,8,0,0,1-11.32,0L51.63,187.14a8.08,8.08,0,0,1,0-11.32L75.4,152.06l55.08,55.08ZM169,191.29L224,136.21l26.32,26.32L214.5,236.84Zm57.73,94a8,8,0,0,1-14.42-7l61.87-128.26a8,8,0,0,1,14.41,7Zm23.78-12.47,35.84-74.31,16.86,16.86-35.84,74.31Zm29,65.29a8,8,0,0,1-14.41-7l61.87-128.26a8,8,0,0,1,14.41,7Zm23.78-12.47,35.84-74.31L356,268.17l-35.84,74.31Zm29,65.29a8,8,0,0,1-14.41-7L379.77,255.7a8,8,0,0,1,14.41,7Zm23.78-12.47,35.84-74.31L408.8,321,373,395.3Zm29,65.29a8,8,0,0,1-14.41-7l61.87-128.26a8,8,0,0,1,14.41,7Zm108.61-26.49L450,461a8,8,0,0,1-11.32,0l-29.75-29.75L444.76,357l49,49A8,8,0,0,1,493.74,417.25Z"/><path d="M183.39,315.31a24.08,24.08,0,0,0-20.79-12H70.2a24.07,24.07,0,0,0-20.79,12l-46.2,80a24.07,24.07,0,0,0,0,24l46.2,80a24.07,24.07,0,0,0,20.79,12H84a8,8,0,0,0,0-16H70.2a8,8,0,0,1-6.93-4l-46.2-80a8,8,0,0,1,0-8l46.2-80a8,8,0,0,1,6.93-4h92.4a8,8,0,0,1,6.93,4l46.2,80a8,8,0,0,1,0,8l-46.2,80a8,8,0,0,1-6.93,4h-36a8,8,0,0,0,0,16h36a24.08,24.08,0,0,0,20.79-12l46.2-80a24.07,24.07,0,0,0,0-24Z"/><path d="M158.24,472.77L194,410.85a7,7,0,0,0,0-7l-35.75-61.92a7,7,0,0,0-6.09-3.52H80.65a7,7,0,0,0-6.09,3.52L38.81,403.82a7,7,0,0,0,0,7l35.75,61.92a7,7,0,0,0,6.09,3.52h71.5A7,7,0,0,0,158.24,472.77ZM84.71,462.22L53,407.33l31.69-54.88h63.38l31.69,54.88-31.69,54.88H84.71Z"/></svg>