<svg xmlns="http://www.w3.org/2000/svg" viewBox="0 0 512 512"><defs><style>.a{fill:none;stroke:#000;stroke-linecap:round;stroke-miterlimit:10;stroke-width:15px;}</style></defs><title>ico</title><path class="a" d="M196.54,44.48l34.11-34.11a3,3,0,0,1,4.24,0l67.19,67.19a3,3,0,0,1,0,4.24L128.43,255.45a3,3,0,0,1-4.24,0L57,188.27A3,3,0,0,1,57,184L159.77,81.25"/><path class="a" d="M498.78,450.08L414.22,426.8a66.2,66.2,0,0,1-29.24-17L180.69,205.5l71.43-71.43L456.9,338.85a66.2,66.2,0,0,1,16.55,27.62Z"/><rect class="a" x="289.81" y="310.2" width="172.67" height="39.65" rx="19.83" ry="19.83" transform="translate(834.21 128.6) rotate(115)"/><rect class="a" x="343.52" y="363.91" width="172.67" height="39.65" rx="19.83" ry="19.83" transform="translate(959.3 156.33) rotate(115)"/><rect class="a" x="237.26" y="257.65" width="172.67" height="39.65" rx="19.83" ry="19.83" transform="translate(711.83 101.47) rotate(115)"/><rect class="a" x="184.71" y="205.1" width="172.67" height="39.65" rx="19.83" ry="19.83" transform="translate(589.44 74.34) rotate(115)"/><path class="a" d="M41.19,473.35a99.55,99.55,0,1,1,70.4,29.16"/><line class="a" x1="111.58" y1="346.62" x2="111.58" y2="459.29"/><line class="a" x1="55.25" y1="402.95" x2="167.92" y2="402.95"/></svg>