<svg xmlns="http://www.w3.org/2000/svg" viewBox="0 0 512 512"><defs><style>.a{fill:none;stroke:#000;stroke-linecap:round;stroke-miterlimit:10;stroke-width:15px;}</style></defs><title>ico</title><path class="a" d="M42.31,473.11a79.55,79.55,0,1,1,56.25,23.3"/><path class="a" d="M121.72,452.19a42.25,42.25,0,1,1,18.2-26.73"/><rect class="a" x="75.73" y="109.94" width="208.57" height="56.65" transform="translate(-45.04 167.79) rotate(-45)"/><path class="a" d="M57.42,163.15L348.14,453.87a14.16,14.16,0,0,0,20,0l8.8-8.8a14.16,14.16,0,0,0,0-20l-85.58-85.58a14.16,14.16,0,0,1,0-20h0a14.16,14.16,0,0,1,20,0L397,405a14.16,14.16,0,0,0,20,0l29.14-29.14a14.16,14.16,0,0,0,0-20l-85.58-85.58a14.16,14.16,0,0,1,0-20l0.61-.61a14.16,14.16,0,0,1,20,0l85.58,85.58a14.16,14.16,0,0,0,20,0l8.8-8.8a14.16,14.16,0,0,0,0-20L204.9,15.67a14.16,14.16,0,0,0-20,0L57.42,143.12A14.16,14.16,0,0,0,57.42,163.15Z"/><line class="a" x1="90" y1="110.54" x2="89.1" y2="178.79"/><line class="a" x1="117.78" y1="82.76" x2="116.88" y2="151.01"/><line class="a" x1="145.56" y1="54.98" x2="144.66" y2="123.22"/><line class="a" x1="173.35" y1="27.19" x2="172.45" y2="95.44"/><line class="a" x1="200.23" y1="12.56" x2="200.23" y2="67.66"/><line class="a" x1="154.45" y1="260.18" x2="154.45" y2="208.82"/><line class="a" x1="185.78" y1="291.52" x2="185.78" y2="172.3"/><line class="a" x1="217.95" y1="323.68" x2="217.95" y2="145.32"/><line class="a" x1="248.9" y1="354.64" x2="248.9" y2="111.75"/><line class="a" x1="280.54" y1="384.91" x2="280.54" y2="92.37"/><line class="a" x1="310.81" y1="416.55" x2="310.81" y2="358.58"/><line class="a" x1="344.55" y1="450.28" x2="344.55" y2="392.31"/><line class="a" x1="314.86" y1="323.79" x2="314.86" y2="129.77"/><line class="a" x1="347.68" y1="356.61" x2="347.68" y2="158.6"/><line class="a" x1="383.71" y1="392.64" x2="383.71" y2="294.66"/><line class="a" x1="458.3" y1="326.86" x2="458.3" y2="269.06"/><line class="a" x1="422.95" y1="291.51" x2="422.95" y2="233.71"/><line class="a" x1="388.52" y1="257.08" x2="388.52" y2="199.28"/><line class="a" x1="417.44" y1="405.01" x2="417.44" y2="328.39"/></svg>