<svg xmlns="http://www.w3.org/2000/svg" viewBox="0 0 512 512"><defs><style>.a{fill:none;stroke:#000;stroke-linecap:round;stroke-miterlimit:10;stroke-width:15px;}</style></defs><title>ico</title><path class="a" d="M369.84,259.33a111.85,111.85,0,0,0-2.23-22.26,16.22,16.22,0,0,1,7.86-17.21l26.91-15.54a16.31,16.31,0,0,0,6-22.28l-9.76-16.91a16.31,16.31,0,0,0-22.28-6l-28,16.16a16.27,16.27,0,0,1-18.56-1.57,111.23,111.23,0,0,0-34.41-19.56,16.26,16.26,0,0,1-10.83-15.36V106.17A16.31,16.31,0,0,0,268.2,89.85H248.68a16.31,16.31,0,0,0-16.31,16.31v32.68a16.26,16.26,0,0,1-10.83,15.36,111.23,111.23,0,0,0-34.41,19.56,16.27,16.27,0,0,1-18.56,1.57l-28-16.16a16.31,16.31,0,0,0-22.28,6L108.53,182a16.31,16.31,0,0,0,6,22.28l26.91,15.54a16.22,16.22,0,0,1,7.86,17.21,112.39,112.39,0,0,0-.62,41.21,16.3,16.3,0,0,1-7.91,16.89L114.5,310.32a16.31,16.31,0,0,0-6,22.28l9.76,16.91a16.31,16.31,0,0,0,22.28,6l25.19-14.54a16.24,16.24,0,0,1,18.88,1.84,111.3,111.3,0,0,0,37,21.72,16.2,16.2,0,0,1,10.74,15.33v28.65a16.31,16.31,0,0,0,16.31,16.31H268.2a16.31,16.31,0,0,0,16.31-16.31V379.83a16.2,16.2,0,0,1,10.74-15.33,111.3,111.3,0,0,0,37-21.73,16.24,16.24,0,0,1,18.88-1.84l25.19,14.54a16.31,16.31,0,0,0,22.28-6l9.76-16.91a16.31,16.31,0,0,0-6-22.28l-26.24-15.15a16.3,16.3,0,0,1-7.91-16.89A111.92,111.92,0,0,0,369.84,259.33Z"/><circle class="a" cx="258.44" cy="257.32" r="224.8"/></svg>